<svg width="24" height="24" viewBox="0 0 24 24" fill="none" xmlns="http://www.w3.org/2000/svg">
<path fill-rule="evenodd" clip-rule="evenodd" d="M15.31 21.0298C15.21 21.7098 14.59 22.2498 13.85 22.2498H10.15C9.40999 22.2498 8.78999 21.7098 8.69999 20.9798L8.42999 19.0898C8.15999 18.9498 7.89999 18.7998 7.63999 18.6298L5.83999 19.3498C5.13999 19.6098 4.36999 19.3198 4.02999 18.6998L2.19999 15.5298C1.84999 14.8698 1.99999 14.0898 2.55999 13.6498L4.08999 12.4598C4.07999 12.3098 4.06999 12.1598 4.06999 11.9998C4.06999 11.8498 4.07999 11.6898 4.08999 11.5398L2.56999 10.3498C1.97999 9.89977 1.82999 9.08977 2.19999 8.46977L4.04999 5.27977C4.38999 4.65977 5.15999 4.37977 5.83999 4.64977L7.64999 5.37977C7.90999 5.20977 8.16999 5.05977 8.42999 4.91977L8.69999 3.00977C8.78999 2.30977 9.40999 1.75977 10.14 1.75977H13.84C14.58 1.75977 15.2 2.29977 15.29 3.02977L15.56 4.91977C15.83 5.05977 16.09 5.20977 16.35 5.37977L18.15 4.65977C18.86 4.39977 19.63 4.68977 19.97 5.30977L21.81 8.48977C22.17 9.14977 22.01 9.92977 21.45 10.3698L19.93 11.5598C19.94 11.7098 19.95 11.8598 19.95 12.0198C19.95 12.1798 19.94 12.3298 19.93 12.4798L21.45 13.6698C22.01 14.1198 22.17 14.8998 21.82 15.5298L19.96 18.7498C19.62 19.3698 18.85 19.6498 18.16 19.3798L16.36 18.6598C16.1 18.8298 15.84 18.9798 15.58 19.1198L15.31 21.0298ZM10.62 20.2498H13.38L13.75 17.6998L14.28 17.4798C14.72 17.2998 15.16 17.0398 15.62 16.6998L16.07 16.3598L18.45 17.3198L19.83 14.9198L17.8 13.3398L17.87 12.7798L17.8731 12.7528C17.902 12.5025 17.93 12.2604 17.93 11.9998C17.93 11.7298 17.9 11.4698 17.87 11.2198L17.8 10.6598L19.83 9.07977L18.44 6.67977L16.05 7.63977L15.6 7.28977C15.18 6.96977 14.73 6.70977 14.27 6.51977L13.75 6.29977L13.38 3.74977H10.62L10.25 6.29977L9.71999 6.50977C9.27999 6.69977 8.83999 6.94977 8.37999 7.29977L7.92999 7.62977L5.54999 6.67977L4.15999 9.06977L6.18999 10.6498L6.11999 11.2098C6.08999 11.4698 6.05999 11.7398 6.05999 11.9998C6.05999 12.2598 6.07999 12.5298 6.11999 12.7798L6.18999 13.3398L4.15999 14.9198L5.53999 17.3198L7.92999 16.3598L8.37999 16.7098C8.80999 17.0398 9.23999 17.2898 9.70999 17.4798L10.24 17.6998L10.62 20.2498ZM15.5 11.9998C15.5 13.9328 13.933 15.4998 12 15.4998C10.067 15.4998 8.49999 13.9328 8.49999 11.9998C8.49999 10.0668 10.067 8.49977 12 8.49977C13.933 8.49977 15.5 10.0668 15.5 11.9998Z" fill="#202020"/>
</svg>
