<svg width="16" height="16" viewBox="0 0 16 16" fill="none" xmlns="http://www.w3.org/2000/svg">
<path d="M7.33335 15.3002V13.9669C5.94446 13.8113 4.7529 13.2364 3.75868 12.2422C2.76401 11.2475 2.1889 10.0558 2.03335 8.66686H0.700012V7.33353H2.03335C2.1889 5.94464 2.76401 4.75286 3.75868 3.7582C4.7529 2.76397 5.94446 2.18908 7.33335 2.03353V0.700195H8.66668V2.03353C10.0556 2.18908 11.2473 2.76397 12.242 3.7582C13.2362 4.75286 13.8111 5.94464 13.9667 7.33353H15.3V8.66686H13.9667C13.8111 10.0558 13.2362 11.2475 12.242 12.2422C11.2473 13.2364 10.0556 13.8113 8.66668 13.9669V15.3002H7.33335ZM8.00001 12.6669C9.2889 12.6669 10.3889 12.2113 11.3 11.3002C12.2111 10.3891 12.6667 9.28908 12.6667 8.0002C12.6667 6.71131 12.2111 5.61131 11.3 4.7002C10.3889 3.78908 9.2889 3.33353 8.00001 3.33353C6.71112 3.33353 5.61112 3.78908 4.70001 4.7002C3.7889 5.61131 3.33335 6.71131 3.33335 8.0002C3.33335 9.28908 3.7889 10.3891 4.70001 11.3002C5.61112 12.2113 6.71112 12.6669 8.00001 12.6669ZM8.00001 10.6669C7.26668 10.6669 6.6389 10.4058 6.11668 9.88353C5.59446 9.36131 5.33335 8.73353 5.33335 8.0002C5.33335 7.26686 5.59446 6.63908 6.11668 6.11686C6.6389 5.59464 7.26668 5.33353 8.00001 5.33353C8.73335 5.33353 9.36112 5.59464 9.88335 6.11686C10.4056 6.63908 10.6667 7.26686 10.6667 8.0002C10.6667 8.73353 10.4056 9.36131 9.88335 9.88353C9.36112 10.4058 8.73335 10.6669 8.00001 10.6669ZM8.00001 9.33353C8.36668 9.33353 8.68068 9.20286 8.94201 8.94153C9.2029 8.68064 9.33335 8.36686 9.33335 8.0002C9.33335 7.63353 9.2029 7.31953 8.94201 7.0582C8.68068 6.79731 8.36668 6.66686 8.00001 6.66686C7.63335 6.66686 7.31957 6.79731 7.05868 7.0582C6.79735 7.31953 6.66668 7.63353 6.66668 8.0002C6.66668 8.36686 6.79735 8.68064 7.05868 8.94153C7.31957 9.20286 7.63335 9.33353 8.00001 9.33353Z" fill="#202020"/>
</svg>
