<svg width="24" height="24" viewBox="0 0 24 24" fill="none" xmlns="http://www.w3.org/2000/svg">
<path d="M8.55 20H15.45L16.45 16H7.55L8.55 20ZM8.55 22C8.08333 22 7.675 21.8583 7.325 21.575C6.975 21.2917 6.74167 20.925 6.625 20.475L5.5 16H18.5L17.375 20.475C17.2583 20.925 17.025 21.2917 16.675 21.575C16.325 21.8583 15.9167 22 15.45 22H8.55ZM5 14H19V12H5V14ZM6.75 2.04998C8.23333 2.23332 9.47933 2.88732 10.488 4.01198C11.496 5.13732 12 6.46665 12 7.99998C12 6.46665 12.504 5.13732 13.512 4.01198C14.5207 2.88732 15.7667 2.23332 17.25 2.04998C17.45 2.01665 17.625 2.07498 17.775 2.22498C17.925 2.37498 17.9833 2.54998 17.95 2.74998C17.7833 4.06665 17.2417 5.19565 16.325 6.13698C15.4083 7.07898 14.3 7.66665 13 7.89998V9.99998H20C20.2833 9.99998 20.5207 10.0957 20.712 10.287C20.904 10.479 21 10.7167 21 11V14C21 14.55 20.8043 15.0207 20.413 15.412C20.021 15.804 19.55 16 19 16H5C4.45 16 3.979 15.804 3.587 15.412C3.19567 15.0207 3 14.55 3 14V11C3 10.7167 3.096 10.479 3.288 10.287C3.47933 10.0957 3.71667 9.99998 4 9.99998H11V7.89998C9.7 7.66665 8.59167 7.07898 7.675 6.13698C6.75833 5.19565 6.21667 4.06665 6.05 2.74998C6.01667 2.54998 6.075 2.37498 6.225 2.22498C6.375 2.07498 6.55 2.01665 6.75 2.04998Z" fill="#202020"/>
</svg>
